{
    "asset" : {
        "generator" : "Khronos glTF Blender I/O v3.3.27",
        "version" : "2.0"
    },
    "extensionsUsed" : [
        "KHR_materials_clearcoat",
        "KHR_materials_specular",
        "KHR_materials_ior"
    ],
    "scene" : 0,
    "scenes" : [
        {
            "name" : "Scene",
            "nodes" : [
                0
            ]
        }
    ],
    "nodes" : [
        {
            "mesh" : 0,
            "name" : "Cube"
        }
    ],
    "materials" : [
        {
            "doubleSided" : true,
            "extensions" : {
                "KHR_materials_clearcoat" : {
                    "clearcoatFactor" : 0.7999999523162842,
                    "clearcoatRoughnessFactor" : 0.048181816935539246
                },
                "KHR_materials_specular" : {
                    "specularColorFactor" : [
                        0.03592962655967494,
                        0.03592962655967494,
                        0.03592962655967494
                    ]
                },
                "KHR_materials_ior" : {
                    "ior" : 1.4500000476837158
                }
            },
            "name" : "ExportMat",
            "pbrMetallicRoughness" : {
                "baseColorFactor" : [
                    0.09969790279865265,
                    0.004611649084836245,
                    0.27095329761505127,
                    1
                ],
                "metallicFactor" : 0,
                "roughnessFactor" : 0.27575796842575073
            }
        }
    ],
    "meshes" : [
        {
            "name" : "Cube",
            "primitives" : [
                {
                    "attributes" : {
                        "POSITION" : 0,
                        "NORMAL" : 1,
                        "TEXCOORD_0" : 2,
                        "TEXCOORD_1" : 3
                    },
                    "indices" : 4,
                    "material" : 0
                }
            ]
        }
    ],
    "accessors" : [
        {
            "bufferView" : 0,
            "componentType" : 5126,
            "count" : 3854,
            "max" : [
                1,
                1.0000005960464478,
                1
            ],
            "min" : [
                -1,
                -1,
                -1
            ],
            "type" : "VEC3"
        },
        {
            "bufferView" : 1,
            "componentType" : 5126,
            "count" : 3854,
            "type" : "VEC3"
        },
        {
            "bufferView" : 2,
            "componentType" : 5126,
            "count" : 3854,
            "type" : "VEC2"
        },
        {
            "bufferView" : 3,
            "componentType" : 5126,
            "count" : 3854,
            "type" : "VEC2"
        },
        {
            "bufferView" : 4,
            "componentType" : 5123,
            "count" : 20556,
            "type" : "SCALAR"
        }
    ],
    "bufferViews" : [
        {
            "buffer" : 0,
            "byteLength" : 46248,
            "byteOffset" : 0,
            "target" : 34962
        },
        {
            "buffer" : 0,
            "byteLength" : 46248,
            "byteOffset" : 46248,
            "target" : 34962
        },
        {
            "buffer" : 0,
            "byteLength" : 30832,
            "byteOffset" : 92496,
            "target" : 34962
        },
        {
            "buffer" : 0,
            "byteLength" : 30832,
            "byteOffset" : 123328,
            "target" : 34962
        },
        {
            "buffer" : 0,
            "byteLength" : 41112,
            "byteOffset" : 154160,
            "target" : 34963
        }
    ],
    "buffers" : [
        {
            "byteLength" : 195272,
            "uri" : "data:application/octet-stream;base64,"
        }
    ]
}
